<mxfile host="app.diagrams.net" agent="Mozilla/5.0 (Windows NT 10.0; Win64; x64; rv:134.0) Gecko/20100101 Firefox/134.0" version="26.0.10">
  <diagram name="Página-1" id="RsyaZGnKzZuYgTZht-ri">
    <mxGraphModel dx="1194" dy="716" grid="1" gridSize="10" guides="1" tooltips="1" connect="1" arrows="1" fold="1" page="1" pageScale="1" pageWidth="827" pageHeight="1169" math="0" shadow="0">
      <root>
        <mxCell id="0" />
        <mxCell id="1" parent="0" />
        <mxCell id="dRNNjarhrwVg-8_Ku8zv-1" value="32 Bits" style="text;html=1;whiteSpace=wrap;overflow=hidden;rounded=0;fontFamily=Helvetica;fontSize=16;fontStyle=1;fontColor=light-dark(#000000,#FFD966);" parent="1" vertex="1">
          <mxGeometry x="510" y="229" width="80" height="30" as="geometry" />
        </mxCell>
        <mxCell id="dRNNjarhrwVg-8_Ku8zv-2" value="" style="endArrow=classic;html=1;rounded=0;hachureGap=4;fontFamily=Architects Daughter;fontSource=https%3A%2F%2Ffonts.googleapis.com%2Fcss%3Ffamily%3DArchitects%2BDaughter;fontSize=16;strokeWidth=4;fillColor=#6d8764;strokeColor=#3A5431;" parent="1" edge="1">
          <mxGeometry width="50" height="50" relative="1" as="geometry">
            <mxPoint x="491" y="242" as="sourcePoint" />
            <mxPoint x="140" y="242" as="targetPoint" />
          </mxGeometry>
        </mxCell>
        <mxCell id="dRNNjarhrwVg-8_Ku8zv-3" value="" style="endArrow=none;html=1;rounded=0;hachureGap=4;fontFamily=Architects Daughter;fontSource=https%3A%2F%2Ffonts.googleapis.com%2Fcss%3Ffamily%3DArchitects%2BDaughter;fontSize=16;strokeWidth=4;startFill=1;startArrow=classic;fillColor=#6d8764;strokeColor=#3A5431;entryX=0.813;entryY=0.333;entryDx=0;entryDy=0;entryPerimeter=0;" parent="1" edge="1" target="dRNNjarhrwVg-8_Ku8zv-1">
          <mxGeometry width="50" height="50" relative="1" as="geometry">
            <mxPoint x="950" y="240" as="sourcePoint" />
            <mxPoint x="750" y="240" as="targetPoint" />
          </mxGeometry>
        </mxCell>
        <mxCell id="dRNNjarhrwVg-8_Ku8zv-5" value="Bit Offset" style="text;html=1;whiteSpace=wrap;overflow=hidden;rounded=0;fontFamily=Helvetica;fontSize=16;fontStyle=1;fontColor=light-dark(#000000,#FFD966);" parent="1" vertex="1">
          <mxGeometry x="140" y="320" width="80" height="30" as="geometry" />
        </mxCell>
        <mxCell id="dRNNjarhrwVg-8_Ku8zv-6" value="TIPO = 0x11" style="text;html=1;whiteSpace=wrap;overflow=hidden;rounded=0;fontFamily=Helvetica;fontSize=16;fontStyle=1;fontColor=light-dark(#000000,#FFD966);" parent="1" vertex="1">
          <mxGeometry x="310" y="365" width="106" height="30" as="geometry" />
        </mxCell>
        <mxCell id="dRNNjarhrwVg-8_Ku8zv-7" value="QQIC" style="text;html=1;whiteSpace=wrap;overflow=hidden;rounded=0;fontFamily=Helvetica;fontSize=16;fontStyle=1;align=center;fontColor=light-dark(#000000,#FFD966);" parent="1" vertex="1">
          <mxGeometry x="567.5" y="445" width="60" height="30" as="geometry" />
        </mxCell>
        <mxCell id="dRNNjarhrwVg-8_Ku8zv-9" value="CHECKSUM" style="text;html=1;whiteSpace=wrap;overflow=hidden;rounded=0;fontFamily=Helvetica;fontSize=16;fontStyle=1;align=center;fontColor=light-dark(#000000,#FFD966);" parent="1" vertex="1">
          <mxGeometry x="785" y="365" width="110" height="40" as="geometry" />
        </mxCell>
        <mxCell id="dRNNjarhrwVg-8_Ku8zv-11" value="" style="endArrow=none;html=1;rounded=0;hachureGap=4;fontFamily=Architects Daughter;fontSource=https%3A%2F%2Ffonts.googleapis.com%2Fcss%3Ffamily%3DArchitects%2BDaughter;fontSize=12;strokeWidth=4;fillColor=#76608a;strokeColor=#432D57;" parent="1" edge="1">
          <mxGeometry width="50" height="50" relative="1" as="geometry">
            <mxPoint x="130" y="600" as="sourcePoint" />
            <mxPoint x="130" y="240" as="targetPoint" />
          </mxGeometry>
        </mxCell>
        <mxCell id="dRNNjarhrwVg-8_Ku8zv-12" value="" style="endArrow=none;html=1;rounded=0;hachureGap=4;fontFamily=Architects Daughter;fontSource=https%3A%2F%2Ffonts.googleapis.com%2Fcss%3Ffamily%3DArchitects%2BDaughter;fontSize=12;strokeWidth=4;fillColor=#76608a;strokeColor=#432D57;" parent="1" edge="1">
          <mxGeometry width="50" height="50" relative="1" as="geometry">
            <mxPoint x="960" y="600" as="sourcePoint" />
            <mxPoint x="960" y="240" as="targetPoint" />
          </mxGeometry>
        </mxCell>
        <mxCell id="dRNNjarhrwVg-8_Ku8zv-13" value="" style="endArrow=none;html=1;rounded=0;hachureGap=4;fontFamily=Architects Daughter;fontSource=https%3A%2F%2Ffonts.googleapis.com%2Fcss%3Ffamily%3DArchitects%2BDaughter;strokeWidth=4;fillColor=#76608a;strokeColor=#432D57;" parent="1" edge="1">
          <mxGeometry width="50" height="50" relative="1" as="geometry">
            <mxPoint x="129" y="400" as="sourcePoint" />
            <mxPoint x="960" y="400" as="targetPoint" />
          </mxGeometry>
        </mxCell>
        <mxCell id="dRNNjarhrwVg-8_Ku8zv-14" value="" style="endArrow=none;html=1;rounded=0;hachureGap=4;fontFamily=Architects Daughter;fontSource=https%3A%2F%2Ffonts.googleapis.com%2Fcss%3Ffamily%3DArchitects%2BDaughter;strokeWidth=4;fillColor=#76608a;strokeColor=#432D57;" parent="1" edge="1">
          <mxGeometry width="50" height="50" relative="1" as="geometry">
            <mxPoint x="130" y="360" as="sourcePoint" />
            <mxPoint x="960" y="360" as="targetPoint" />
          </mxGeometry>
        </mxCell>
        <mxCell id="dRNNjarhrwVg-8_Ku8zv-15" value="" style="endArrow=none;html=1;rounded=0;hachureGap=4;fontFamily=Architects Daughter;fontSource=https%3A%2F%2Ffonts.googleapis.com%2Fcss%3Ffamily%3DArchitects%2BDaughter;strokeWidth=4;fillColor=#76608a;strokeColor=#432D57;" parent="1" edge="1">
          <mxGeometry width="50" height="50" relative="1" as="geometry">
            <mxPoint x="477" y="402" as="sourcePoint" />
            <mxPoint x="476.5" y="320" as="targetPoint" />
          </mxGeometry>
        </mxCell>
        <mxCell id="dRNNjarhrwVg-8_Ku8zv-16" value="ENDEREÇO DE GRUPO" style="text;html=1;whiteSpace=wrap;overflow=hidden;rounded=0;fontFamily=Helvetica;fontSize=16;fontStyle=1;align=center;fontColor=light-dark(#000000,#FFD966);" parent="1" vertex="1">
          <mxGeometry x="446" y="407" width="238" height="40" as="geometry" />
        </mxCell>
        <mxCell id="dRNNjarhrwVg-8_Ku8zv-17" value="" style="endArrow=none;html=1;rounded=0;hachureGap=4;fontFamily=Architects Daughter;fontSource=https%3A%2F%2Ffonts.googleapis.com%2Fcss%3Ffamily%3DArchitects%2BDaughter;strokeWidth=4;fillColor=#76608a;strokeColor=#432D57;" parent="1" edge="1">
          <mxGeometry width="50" height="50" relative="1" as="geometry">
            <mxPoint x="129" y="560" as="sourcePoint" />
            <mxPoint x="960" y="560" as="targetPoint" />
          </mxGeometry>
        </mxCell>
        <mxCell id="dRNNjarhrwVg-8_Ku8zv-18" value="" style="endArrow=none;html=1;rounded=0;hachureGap=4;fontFamily=Architects Daughter;fontSource=https%3A%2F%2Ffonts.googleapis.com%2Fcss%3Ffamily%3DArchitects%2BDaughter;strokeWidth=4;fillColor=#76608a;strokeColor=#432D57;" parent="1" edge="1">
          <mxGeometry width="50" height="50" relative="1" as="geometry">
            <mxPoint x="240" y="600" as="sourcePoint" />
            <mxPoint x="240" y="320" as="targetPoint" />
          </mxGeometry>
        </mxCell>
        <mxCell id="dRNNjarhrwVg-8_Ku8zv-19" value="FORMATO DA MENSAGEM IGMPv3" style="text;html=1;whiteSpace=wrap;overflow=hidden;rounded=0;fontFamily=Helvetica;fontSize=15;fontStyle=1" parent="1" vertex="1">
          <mxGeometry x="130" y="605" width="256" height="30" as="geometry" />
        </mxCell>
        <mxCell id="WxIhB9MnhxpoTWCPjyNs-1" value="0 - 3" style="text;html=1;whiteSpace=wrap;overflow=hidden;rounded=0;fontFamily=Helvetica;fontSize=16;fontStyle=1;fontColor=light-dark(#000000,#FFD966);" vertex="1" parent="1">
          <mxGeometry x="262" y="321" width="38" height="30" as="geometry" />
        </mxCell>
        <mxCell id="WxIhB9MnhxpoTWCPjyNs-2" value="" style="endArrow=none;html=1;rounded=0;hachureGap=4;fontFamily=Architects Daughter;fontSource=https%3A%2F%2Ffonts.googleapis.com%2Fcss%3Ffamily%3DArchitects%2BDaughter;strokeWidth=4;fillColor=#76608a;strokeColor=#432D57;exitX=1;exitY=0.75;exitDx=0;exitDy=0;" edge="1" parent="1">
          <mxGeometry width="50" height="50" relative="1" as="geometry">
            <mxPoint x="320" y="362.5" as="sourcePoint" />
            <mxPoint x="320" y="320" as="targetPoint" />
          </mxGeometry>
        </mxCell>
        <mxCell id="WxIhB9MnhxpoTWCPjyNs-3" value="4" style="text;html=1;whiteSpace=wrap;overflow=hidden;rounded=0;fontFamily=Helvetica;fontSize=16;fontStyle=1;fontColor=light-dark(#000000,#FFD966);" vertex="1" parent="1">
          <mxGeometry x="354" y="320" width="60" height="30" as="geometry" />
        </mxCell>
        <mxCell id="WxIhB9MnhxpoTWCPjyNs-5" value="5 - 7" style="text;html=1;whiteSpace=wrap;overflow=hidden;rounded=0;fontFamily=Helvetica;fontSize=16;fontStyle=1;fontColor=light-dark(#000000,#FFD966);" vertex="1" parent="1">
          <mxGeometry x="420" y="320" width="45" height="30" as="geometry" />
        </mxCell>
        <mxCell id="WxIhB9MnhxpoTWCPjyNs-6" value="" style="endArrow=none;html=1;rounded=0;hachureGap=4;fontFamily=Architects Daughter;fontSource=https%3A%2F%2Ffonts.googleapis.com%2Fcss%3Ffamily%3DArchitects%2BDaughter;strokeWidth=4;fillColor=#76608a;strokeColor=#432D57;" edge="1" parent="1">
          <mxGeometry width="50" height="50" relative="1" as="geometry">
            <mxPoint x="400" y="360" as="sourcePoint" />
            <mxPoint x="400" y="320" as="targetPoint" />
          </mxGeometry>
        </mxCell>
        <mxCell id="WxIhB9MnhxpoTWCPjyNs-8" value="8 - 15" style="text;html=1;whiteSpace=wrap;overflow=hidden;rounded=0;fontFamily=Helvetica;fontSize=16;fontStyle=1;fontColor=light-dark(#000000,#FFD966);" vertex="1" parent="1">
          <mxGeometry x="575" y="320" width="45" height="30" as="geometry" />
        </mxCell>
        <mxCell id="WxIhB9MnhxpoTWCPjyNs-10" value="CÓDIGO MÁXIMO DE RESPOSTA" style="text;html=1;whiteSpace=wrap;overflow=hidden;rounded=0;fontFamily=Helvetica;fontSize=16;fontStyle=1;align=center;fontColor=light-dark(#000000,#FFD966);" vertex="1" parent="1">
          <mxGeometry x="477.5" y="357" width="240" height="60" as="geometry" />
        </mxCell>
        <mxCell id="WxIhB9MnhxpoTWCPjyNs-12" value="" style="endArrow=none;html=1;rounded=0;hachureGap=4;fontFamily=Architects Daughter;fontSource=https%3A%2F%2Ffonts.googleapis.com%2Fcss%3Ffamily%3DArchitects%2BDaughter;strokeWidth=4;fillColor=#76608a;strokeColor=#432D57;" edge="1" parent="1">
          <mxGeometry width="50" height="50" relative="1" as="geometry">
            <mxPoint x="720" y="400" as="sourcePoint" />
            <mxPoint x="720" y="320" as="targetPoint" />
          </mxGeometry>
        </mxCell>
        <mxCell id="WxIhB9MnhxpoTWCPjyNs-13" value="16 - 31" style="text;html=1;whiteSpace=wrap;overflow=hidden;rounded=0;fontFamily=Helvetica;fontSize=16;fontStyle=1;fontColor=light-dark(#000000,#FFD966);" vertex="1" parent="1">
          <mxGeometry x="810" y="320" width="60" height="30" as="geometry" />
        </mxCell>
        <mxCell id="WxIhB9MnhxpoTWCPjyNs-14" style="edgeStyle=orthogonalEdgeStyle;rounded=0;sketch=1;hachureGap=4;jiggle=2;curveFitting=1;orthogonalLoop=1;jettySize=auto;html=1;exitX=0.5;exitY=1;exitDx=0;exitDy=0;fontFamily=Architects Daughter;fontSource=https%3A%2F%2Ffonts.googleapis.com%2Fcss%3Ffamily%3DArchitects%2BDaughter;" edge="1" parent="1" source="dRNNjarhrwVg-8_Ku8zv-9" target="dRNNjarhrwVg-8_Ku8zv-9">
          <mxGeometry relative="1" as="geometry" />
        </mxCell>
        <mxCell id="WxIhB9MnhxpoTWCPjyNs-15" value="0" style="text;html=1;whiteSpace=wrap;overflow=hidden;rounded=0;fontFamily=Helvetica;fontSize=16;fontStyle=1;fontColor=light-dark(#000000,#FFD966);" vertex="1" parent="1">
          <mxGeometry x="174" y="365" width="30" height="30" as="geometry" />
        </mxCell>
        <mxCell id="WxIhB9MnhxpoTWCPjyNs-16" value="32" style="text;html=1;whiteSpace=wrap;overflow=hidden;rounded=0;fontFamily=Helvetica;fontSize=16;fontStyle=1;fontColor=light-dark(#000000,#FFD966);" vertex="1" parent="1">
          <mxGeometry x="168" y="405" width="30" height="30" as="geometry" />
        </mxCell>
        <mxCell id="WxIhB9MnhxpoTWCPjyNs-17" value="64" style="text;html=1;whiteSpace=wrap;overflow=hidden;rounded=0;fontFamily=Helvetica;fontSize=16;fontStyle=1;fontColor=light-dark(#000000,#FFD966);" vertex="1" parent="1">
          <mxGeometry x="168" y="442" width="30" height="30" as="geometry" />
        </mxCell>
        <mxCell id="WxIhB9MnhxpoTWCPjyNs-18" value="" style="endArrow=none;html=1;rounded=0;hachureGap=4;fontFamily=Architects Daughter;fontSource=https%3A%2F%2Ffonts.googleapis.com%2Fcss%3Ffamily%3DArchitects%2BDaughter;strokeWidth=4;fillColor=#76608a;strokeColor=#432D57;" edge="1" parent="1">
          <mxGeometry width="50" height="50" relative="1" as="geometry">
            <mxPoint x="130" y="442" as="sourcePoint" />
            <mxPoint x="961" y="442" as="targetPoint" />
          </mxGeometry>
        </mxCell>
        <mxCell id="WxIhB9MnhxpoTWCPjyNs-19" value="" style="endArrow=none;html=1;rounded=0;hachureGap=4;fontFamily=Architects Daughter;fontSource=https%3A%2F%2Ffonts.googleapis.com%2Fcss%3Ffamily%3DArchitects%2BDaughter;strokeWidth=4;fillColor=#76608a;strokeColor=#432D57;" edge="1" parent="1">
          <mxGeometry width="50" height="50" relative="1" as="geometry">
            <mxPoint x="130" y="480" as="sourcePoint" />
            <mxPoint x="961" y="480" as="targetPoint" />
          </mxGeometry>
        </mxCell>
        <mxCell id="WxIhB9MnhxpoTWCPjyNs-20" value="" style="endArrow=none;html=1;rounded=0;hachureGap=4;fontFamily=Architects Daughter;fontSource=https%3A%2F%2Ffonts.googleapis.com%2Fcss%3Ffamily%3DArchitects%2BDaughter;strokeWidth=4;fillColor=#76608a;strokeColor=#432D57;" edge="1" parent="1">
          <mxGeometry width="50" height="50" relative="1" as="geometry">
            <mxPoint x="130" y="519.5" as="sourcePoint" />
            <mxPoint x="961" y="519.5" as="targetPoint" />
          </mxGeometry>
        </mxCell>
        <mxCell id="WxIhB9MnhxpoTWCPjyNs-21" value="96" style="text;html=1;whiteSpace=wrap;overflow=hidden;rounded=0;fontFamily=Helvetica;fontSize=16;fontStyle=1;fontColor=light-dark(#000000,#FFD966);" vertex="1" parent="1">
          <mxGeometry x="168" y="480" width="30" height="30" as="geometry" />
        </mxCell>
        <mxCell id="WxIhB9MnhxpoTWCPjyNs-22" value="128" style="text;html=1;whiteSpace=wrap;overflow=hidden;rounded=0;fontFamily=Helvetica;fontSize=16;fontStyle=1;fontColor=light-dark(#000000,#FFD966);" vertex="1" parent="1">
          <mxGeometry x="165" y="520" width="30" height="30" as="geometry" />
        </mxCell>
        <mxCell id="WxIhB9MnhxpoTWCPjyNs-23" value="" style="endArrow=none;html=1;rounded=0;hachureGap=4;fontFamily=Architects Daughter;fontSource=https%3A%2F%2Ffonts.googleapis.com%2Fcss%3Ffamily%3DArchitects%2BDaughter;strokeWidth=4;fillColor=#76608a;strokeColor=#432D57;" edge="1" parent="1">
          <mxGeometry width="50" height="50" relative="1" as="geometry">
            <mxPoint x="128.5" y="600" as="sourcePoint" />
            <mxPoint x="959.5" y="600" as="targetPoint" />
          </mxGeometry>
        </mxCell>
        <mxCell id="WxIhB9MnhxpoTWCPjyNs-24" value="" style="endArrow=none;html=1;rounded=0;hachureGap=4;fontFamily=Architects Daughter;fontSource=https%3A%2F%2Ffonts.googleapis.com%2Fcss%3Ffamily%3DArchitects%2BDaughter;strokeWidth=4;fillColor=#76608a;strokeColor=#432D57;" edge="1" parent="1">
          <mxGeometry width="50" height="50" relative="1" as="geometry">
            <mxPoint x="478" y="480" as="sourcePoint" />
            <mxPoint x="477.5" y="440" as="targetPoint" />
          </mxGeometry>
        </mxCell>
        <mxCell id="WxIhB9MnhxpoTWCPjyNs-25" value="RSV" style="text;html=1;whiteSpace=wrap;overflow=hidden;rounded=0;fontFamily=Helvetica;fontSize=16;fontStyle=1;fontColor=light-dark(#000000,#FFD966);" vertex="1" parent="1">
          <mxGeometry x="260" y="444" width="60" height="30" as="geometry" />
        </mxCell>
        <mxCell id="WxIhB9MnhxpoTWCPjyNs-26" value="S" style="text;html=1;whiteSpace=wrap;overflow=hidden;rounded=0;fontFamily=Helvetica;fontSize=16;fontStyle=1;fontColor=light-dark(#000000,#FFD966);" vertex="1" parent="1">
          <mxGeometry x="348" y="444" width="30" height="30" as="geometry" />
        </mxCell>
        <mxCell id="WxIhB9MnhxpoTWCPjyNs-27" value="QRV" style="text;html=1;whiteSpace=wrap;overflow=hidden;rounded=0;fontFamily=Helvetica;fontSize=16;fontStyle=1;fontColor=light-dark(#000000,#FFD966);" vertex="1" parent="1">
          <mxGeometry x="414" y="444" width="50" height="30" as="geometry" />
        </mxCell>
        <mxCell id="WxIhB9MnhxpoTWCPjyNs-29" value="" style="endArrow=none;html=1;rounded=0;hachureGap=4;fontFamily=Architects Daughter;fontSource=https%3A%2F%2Ffonts.googleapis.com%2Fcss%3Ffamily%3DArchitects%2BDaughter;strokeWidth=4;fillColor=#76608a;strokeColor=#432D57;exitX=1;exitY=0.75;exitDx=0;exitDy=0;" edge="1" parent="1">
          <mxGeometry width="50" height="50" relative="1" as="geometry">
            <mxPoint x="319" y="481.5" as="sourcePoint" />
            <mxPoint x="319" y="439" as="targetPoint" />
          </mxGeometry>
        </mxCell>
        <mxCell id="WxIhB9MnhxpoTWCPjyNs-30" value="" style="endArrow=none;html=1;rounded=0;hachureGap=4;fontFamily=Architects Daughter;fontSource=https%3A%2F%2Ffonts.googleapis.com%2Fcss%3Ffamily%3DArchitects%2BDaughter;strokeWidth=4;fillColor=#76608a;strokeColor=#432D57;" edge="1" parent="1">
          <mxGeometry width="50" height="50" relative="1" as="geometry">
            <mxPoint x="401" y="480" as="sourcePoint" />
            <mxPoint x="401" y="440" as="targetPoint" />
          </mxGeometry>
        </mxCell>
        <mxCell id="WxIhB9MnhxpoTWCPjyNs-31" value="" style="endArrow=none;html=1;rounded=0;hachureGap=4;fontFamily=Architects Daughter;fontSource=https%3A%2F%2Ffonts.googleapis.com%2Fcss%3Ffamily%3DArchitects%2BDaughter;strokeWidth=4;fillColor=#76608a;strokeColor=#432D57;" edge="1" parent="1">
          <mxGeometry width="50" height="50" relative="1" as="geometry">
            <mxPoint x="721" y="482" as="sourcePoint" />
            <mxPoint x="721" y="442" as="targetPoint" />
          </mxGeometry>
        </mxCell>
        <mxCell id="WxIhB9MnhxpoTWCPjyNs-32" value="NÚMERO DE FONTES (N)" style="text;html=1;whiteSpace=wrap;overflow=hidden;rounded=0;fontFamily=Helvetica;fontSize=16;fontStyle=1;align=center;fontColor=light-dark(#000000,#FFD966);" vertex="1" parent="1">
          <mxGeometry x="717.5" y="445" width="238" height="40" as="geometry" />
        </mxCell>
        <mxCell id="WxIhB9MnhxpoTWCPjyNs-33" value="ENDEREÇO DE ORIGEM (1)" style="text;html=1;whiteSpace=wrap;overflow=hidden;rounded=0;fontFamily=Helvetica;fontSize=16;fontStyle=1;align=center;fontColor=light-dark(#000000,#FFD966);" vertex="1" parent="1">
          <mxGeometry x="414" y="485" width="238" height="40" as="geometry" />
        </mxCell>
        <mxCell id="WxIhB9MnhxpoTWCPjyNs-34" value="ENDEREÇO DE ORIGEM (2)" style="text;html=1;whiteSpace=wrap;overflow=hidden;rounded=0;fontFamily=Helvetica;fontSize=16;fontStyle=1;align=center;fontColor=light-dark(#000000,#FFD966);" vertex="1" parent="1">
          <mxGeometry x="416" y="525" width="238" height="40" as="geometry" />
        </mxCell>
        <mxCell id="WxIhB9MnhxpoTWCPjyNs-35" value="ENDEREÇO DE ORIGEM (N)" style="text;html=1;whiteSpace=wrap;overflow=hidden;rounded=0;fontFamily=Helvetica;fontSize=16;fontStyle=1;align=center;fontColor=light-dark(#000000,#FFD966);" vertex="1" parent="1">
          <mxGeometry x="416" y="565" width="238" height="40" as="geometry" />
        </mxCell>
      </root>
    </mxGraphModel>
  </diagram>
</mxfile>
